<?xml version="1.0" encoding="UTF-8"?>
<svg id="_레이어_3" data-name="레이어 3" xmlns="http://www.w3.org/2000/svg" viewBox="0 0 847.88 424.96">
  <path d="m470.36,239.13l-33.81-9.18c5.8-20.92,10.06-42.42,12.8-64.5,2.73-22.06,4.58-45.8,5.56-71.24l33.32,3.38c-1.28,24.79-3.3,48.38-6.03,70.77s-6.68,45.98-11.83,70.77Zm101.94-127.05c6.43,16.41,11.74,32.85,15.94,49.28l-30.92,15.45c-2.59-14.8-6.03-29.23-10.4-43.25-4.34-14-8.3-26.48-11.83-37.43v327.53h-36.23V60.39c0-9.65-.16-19.79-.49-30.43-.31-10.63-1.77-20.6-4.34-29.96h44.94c-1.93,9.36-3.07,19.17-3.38,29.47-.33,10.32-.49,20.46-.49,30.45v19.79l18.85-14.49,18.36,46.86Z"
        fill="currentColor" 
        stroke="currentColor" />
</svg>