<?xml version="1.0" encoding="UTF-8"?>
<svg id="_레이어_5" data-name="레이어 5" xmlns="http://www.w3.org/2000/svg" viewBox="0 0 847.88 424.96">
  <path d="m159.91,201.78c-6.45,4.52-14.59,6.86-24.39,7.02-9.83.16-18.93.24-27.3.24l-11.6-32.38c3.22,0,7.41.18,12.56.49s10.22.41,15.23.24c4.97-.16,9.57-.88,13.76-2.16,4.19-1.3,6.76-3.56,7.73-6.78.31-1.59.49-3.85.49-6.76v-42.5c-16.75,16.75-35.84,33.32-57.26,49.75-21.41,16.43-43.23,30.12-65.46,41.06l-16.41-28.5c24.16-10.3,48.06-24.39,71.73-42.26,23.69-17.89,46.14-38.9,67.41-63.06v-30.9c-9.99,11.26-20.7,21.66-32.14,31.16-11.42,9.49-22.94,18.05-34.54,25.59-11.6,7.57-22.94,14.33-34.05,20.29-11.13,5.98-21.19,11.2-30.19,15.71L0,107.58c10.3-3.54,20.86-8.04,31.65-13.52,10.79-5.48,21.33-11.44,31.65-17.89,10.3-6.43,20.05-13.43,29.23-21.01,9.16-7.55,17.14-15.37,23.9-23.43H10.63V4.21h170.06v158.46c0,2.89-.18,5.46-.49,7.73-2.47,13.61-9.69,23.74-20.29,31.39ZM360.87,4.21v164.24c0,12.25-3.05,21.74-9.16,28.5-6.13,6.78-12.9,11.13-20.31,13.05-2.24.65-5.46,1.14-9.65,1.45s-8.37.65-12.56.96-7.98.57-11.36.73c-3.38.16-5.39.24-6.03.24l-12.07-31.88c1.93,0,4.42.08,7.49.24,3.05.18,6.27.26,9.65.26s6.68-.08,9.91-.26c3.22-.16,5.96-.39,8.22-.73,3.54-.63,6.19-2.4,7.96-5.31,1.77-2.89,2.99-7.57,3.64-14.02v-42.5c-4.52,5.48-10.63,11.6-18.36,18.36-7.75,6.76-16.04,13.52-24.89,20.29-8.87,6.76-17.87,13.21-27.05,19.32s-17.63,11.11-25.36,14.98l-21.74-26.58c9.97-4.84,20.37-10.46,31.16-16.91,10.79-6.45,21.25-13.6,31.39-21.51,10.14-7.88,19.89-16.34,29.23-25.36,9.34-9.02,17.87-18.36,25.61-28.01v-35.27c-7.75,9-16.35,17.95-25.85,26.81-9.51,8.85-19.5,17.14-29.96,24.87-10.48,7.73-21.09,14.9-31.88,21.51-10.79,6.6-21.35,11.99-31.65,16.18l-17.87-27.54c8.69-3.54,17.71-7.88,27.05-13.03,9.34-5.15,18.44-10.71,27.3-16.67,8.85-5.96,17.14-12.33,24.87-19.09,7.75-6.76,14.33-13.37,19.81-19.81h-97.11V4.21h169.56Z"
        fill="currentColor" 
        stroke="currentColor" />
</svg>