<?xml version="1.0" encoding="UTF-8"?>
<svg id="_레이어_4" data-name="레이어 4" xmlns="http://www.w3.org/2000/svg" viewBox="0 0 847.88 424.96">
  <path d="m559.94,423.03l-13.52-30.92c18.05-2.91,34.95-7.33,50.74-13.29,15.77-5.96,31.39-14.09,46.86-24.39l19.32,26.09c-16.43,10.95-33.67,19.97-51.7,27.05-18.05,7.08-35.27,12.25-51.7,15.47Zm242.53-329.01l-8.71,58.46h-206.28l11.13-57.97h-25.12v-26.58h29.94l10.14-55.55h202.9l-10.61,56.04h42.03v25.59h-45.41Zm-208.7,253.64v-172.47h215.46v172.47h-215.46Zm39.12-253.64l-5.31,32.38h52.66l5.31-32.38h-52.66Zm141.55,104.36h-146.37v26.56h146.37v-26.56Zm0,49.75h-146.37v26.58h146.37v-26.58Zm0,49.75h-146.37v26.58h146.37v-26.58ZM641.1,37.51l-4.34,30.92h52.17l4.84-30.92h-52.66Zm77.29,56.51l-5.31,32.38h50.74l5.31-32.38h-50.74Zm8.71-56.51l-4.34,30.43h48.79l4.84-30.43h-49.28Zm117.87,359.91l-16.91,27.54c-7.08-1.61-14.9-4.11-23.43-7.49-8.53-3.38-17.06-7.33-25.59-11.83-8.55-4.52-16.85-9.26-24.89-14.25-8.06-4.99-15.29-9.91-21.74-14.74l17.4-24.14c9,5.78,17.46,10.85,25.36,15.21,7.88,4.34,15.63,8.37,23.2,12.07,7.55,3.7,15.14,7,22.7,9.91,7.57,2.89,15.53,5.46,23.9,7.73Z"
        fill="currentColor" 
        stroke="currentColor" />
</svg>